<?xml version="1.0" encoding="UTF-8" standalone="no"?><!DOCTYPE svg PUBLIC "-//W3C//DTD SVG 1.1//EN" "http://www.w3.org/Graphics/SVG/1.1/DTD/svg11.dtd"><svg width="100%" height="100%" viewBox="0 0 3534 3508" version="1.1" xmlns="http://www.w3.org/2000/svg" xmlns:xlink="http://www.w3.org/1999/xlink" xml:space="preserve" xmlns:serif="http://www.serif.com/" style="fill-rule:evenodd;clip-rule:evenodd;stroke-linecap:round;stroke-linejoin:round;stroke-miterlimit:1.5;"><rect id="Artboard1" x="0" y="0" width="3533.41" height="3507.87" style="fill:none;"/><text x="87.701px" y="189.123px" style="font-family:'Arial-BoldMT', 'Arial', sans-serif;font-weight:700;font-size:50px;fill:#1d1d1b;">Sequence input</text><text x="89.532px" y="842.416px" style="font-family:'Arial-BoldMT', 'Arial', sans-serif;font-weight:700;font-size:50px;fill:#1d1d1b;">V<tspan x="120.123px 147.931px " y="842.416px 842.416px ">ar</tspan>iant generation and selection</text><text x="89.532px" y="2072.1px" style="font-family:'Arial-BoldMT', 'Arial', sans-serif;font-weight:700;font-size:50px;fill:#1d1d1b;">ESE resemblance (optional)</text><text x="89.508px" y="2864.08px" style="font-family:'Arial-BoldMT', 'Arial', sans-serif;font-weight:700;font-size:50px;fill:#1d1d1b;">Restriction sites (optional)</text><g><rect x="189.642" y="300.645" width="99.281" height="72.334" style="fill:#fff;stroke:#000;stroke-width:2.08px;"/><rect x="354.959" y="300.645" width="208.782" height="72.334" style="fill:#fff;stroke:#000;stroke-width:2.08px;"/><rect x="687.964" y="300.645" width="159.478" height="72.334" style="fill:#fff;stroke:#000;stroke-width:2.08px;"/><g><path d="M288.923,336.813l32.859,25.556" style="fill:none;stroke:#000;stroke-width:2.08px;"/><path d="M321.782,362.369l33.177,-25.556" style="fill:none;stroke:#000;stroke-width:2.08px;"/></g><g><path d="M563.66,336.813l61.853,25.556" style="fill:none;stroke:#000;stroke-width:2.08px;"/><path d="M625.513,362.369l62.451,-25.556" style="fill:none;stroke:#000;stroke-width:2.08px;"/></g></g><g><rect x="88.185" y="2265.4" width="99.281" height="72.334" style="fill:#fff;stroke:#000;stroke-width:2.08px;"/><rect x="253.502" y="2265.4" width="208.782" height="72.334" style="fill:#fff;stroke:#000;stroke-width:2.08px;"/><rect x="586.507" y="2265.4" width="159.478" height="72.334" style="fill:#fff;stroke:#000;stroke-width:2.08px;"/><g><path d="M187.467,2301.57l32.859,25.557" style="fill:none;stroke:#000;stroke-width:2.08px;"/><path d="M220.326,2327.13l33.176,-25.557" style="fill:none;stroke:#000;stroke-width:2.08px;"/></g><g><path d="M462.204,2301.57l61.853,25.557" style="fill:none;stroke:#000;stroke-width:2.08px;"/><path d="M524.057,2327.13l62.45,-25.557" style="fill:none;stroke:#000;stroke-width:2.08px;"/></g></g><g><rect x="77.737" y="3047.12" width="99.281" height="72.334" style="fill:#fff;stroke:#000;stroke-width:2.08px;"/><rect x="243.054" y="3047.12" width="208.782" height="72.334" style="fill:#fff;stroke:#000;stroke-width:2.08px;"/><rect x="576.059" y="3047.12" width="159.478" height="72.334" style="fill:#fff;stroke:#000;stroke-width:2.08px;"/><g><path d="M177.019,3083.28l32.859,25.556" style="fill:none;stroke:#000;stroke-width:2.08px;"/><path d="M209.878,3108.84l33.176,-25.556" style="fill:none;stroke:#000;stroke-width:2.08px;"/></g><g><path d="M451.755,3083.28l61.854,25.556" style="fill:none;stroke:#000;stroke-width:2.08px;"/><path d="M513.609,3108.84l62.45,-25.556" style="fill:none;stroke:#000;stroke-width:2.08px;"/></g></g><g><rect x="1766.7" y="2153.26" width="99.281" height="72.334" style="fill:#ebebeb;stroke:#000;stroke-width:2.08px;"/><rect x="1932.02" y="2153.26" width="208.782" height="72.334" style="fill:#ebebeb;stroke:#000;stroke-width:2.08px;"/><rect x="2140.41" y="2153.26" width="159.478" height="72.334" style="fill:#ebebeb;stroke:#000;stroke-width:2.08px;"/><g><path d="M1865.98,2189.43l32.859,25.556" style="fill:none;stroke:#000;stroke-width:2.08px;"/><path d="M1898.84,2214.98l33.177,-25.556" style="fill:none;stroke:#000;stroke-width:2.08px;"/></g></g><g><rect x="1766.7" y="2934.67" width="99.281" height="72.334" style="fill:#ebebeb;stroke:#000;stroke-width:2.08px;"/><rect x="1932.02" y="2934.67" width="208.782" height="72.334" style="fill:#ebebeb;stroke:#000;stroke-width:2.08px;"/><rect x="2140.41" y="2934.67" width="159.478" height="72.334" style="fill:#ebebeb;stroke:#000;stroke-width:2.08px;"/><g><path d="M1865.98,2970.84l32.859,25.556" style="fill:none;stroke:#000;stroke-width:2.08px;"/><path d="M1898.84,2996.4l33.177,-25.556" style="fill:none;stroke:#000;stroke-width:2.08px;"/></g></g><g><rect x="1766.7" y="2437.05" width="99.281" height="72.334" style="fill:#ebebeb;stroke:#000;stroke-width:2.08px;"/><rect x="1932.02" y="2437.05" width="208.782" height="72.334" style="fill:#ebebeb;stroke:#000;stroke-width:2.08px;"/><rect x="2140.41" y="2437.05" width="159.478" height="72.334" style="fill:#ebebeb;stroke:#000;stroke-width:2.08px;"/><g><path d="M1865.98,2473.22l32.859,25.556" style="fill:none;stroke:#000;stroke-width:2.08px;"/><path d="M1898.84,2498.78l33.177,-25.556" style="fill:none;stroke:#000;stroke-width:2.08px;"/></g></g><g><rect x="1766.7" y="3238.47" width="99.281" height="72.334" style="fill:#ebebeb;stroke:#000;stroke-width:2.08px;"/><rect x="1932.02" y="3238.47" width="208.782" height="72.334" style="fill:#ebebeb;stroke:#000;stroke-width:2.08px;"/><rect x="2140.41" y="3238.47" width="159.478" height="72.334" style="fill:#ebebeb;stroke:#000;stroke-width:2.08px;"/><g><path d="M1865.98,3274.64l32.859,25.556" style="fill:none;stroke:#000;stroke-width:2.08px;"/><path d="M1898.84,3300.19l33.177,-25.556" style="fill:none;stroke:#000;stroke-width:2.08px;"/></g></g><g><rect x="2726.63" y="2317.74" width="99.281" height="72.334" style="fill:#ebebeb;stroke:#000;stroke-width:2.08px;"/><rect x="2891.95" y="2317.74" width="208.782" height="72.334" style="fill:#ebebeb;stroke:#000;stroke-width:2.08px;"/><rect x="3100.34" y="2317.74" width="159.478" height="72.334" style="fill:#ebebeb;stroke:#000;stroke-width:2.08px;"/><g><path d="M2825.91,2353.9l32.859,25.556" style="fill:none;stroke:#000;stroke-width:2.08px;"/><path d="M2858.77,2379.46l33.177,-25.556" style="fill:none;stroke:#000;stroke-width:2.08px;"/></g></g><g><rect x="159.642" y="1074.43" width="99.281" height="72.334" style="fill:#fff;stroke:#000;stroke-width:2.08px;"/><rect x="324.959" y="1074.43" width="208.782" height="72.334" style="fill:#fff;stroke:#000;stroke-width:2.08px;"/><rect x="657.964" y="1074.43" width="159.478" height="72.334" style="fill:#fff;stroke:#000;stroke-width:2.08px;"/><g><path d="M258.923,1110.6l32.859,25.556" style="fill:none;stroke:#000;stroke-width:2.08px;"/><path d="M291.782,1136.15l33.177,-25.556" style="fill:none;stroke:#000;stroke-width:2.08px;"/></g><g><path d="M533.66,1110.6l61.853,25.556" style="fill:none;stroke:#000;stroke-width:2.08px;"/><path d="M595.513,1136.15l62.451,-25.556" style="fill:none;stroke:#000;stroke-width:2.08px;"/></g></g><rect x="140.001" y="318.023" width="49.641" height="36.167" style="fill:#fff;stroke:#000;stroke-width:2.08px;"/><g><rect x="1410.36" y="241.555" width="49.641" height="36.167" style="fill:#fff;stroke:#000;stroke-width:2.08px;"/><rect x="1992.94" y="241.555" width="49.641" height="36.167" style="fill:#fff;stroke:#000;stroke-width:2.08px;"/><g><rect x="1459.36" y="224.177" width="99.281" height="72.334" style="fill:#ebebeb;stroke:#000;stroke-width:2.08px;"/><rect x="1624.68" y="224.177" width="208.782" height="72.334" style="fill:#ebebeb;stroke:#000;stroke-width:2.08px;"/><rect x="1833.46" y="224.177" width="159.478" height="72.334" style="fill:#ebebeb;stroke:#000;stroke-width:2.08px;"/><g><path d="M1558.64,260.345l32.859,25.556" style="fill:none;stroke:#000;stroke-width:2.08px;"/><path d="M1591.5,285.901l33.176,-25.556" style="fill:none;stroke:#000;stroke-width:2.08px;"/></g></g></g><g><rect x="1410.35" y="488.415" width="49.641" height="36.167" style="fill:#fff;stroke:#000;stroke-width:2.08px;"/><g><rect x="1459.36" y="471.038" width="99.281" height="72.334" style="fill:#ebebeb;stroke:#000;stroke-width:2.08px;"/><rect x="1558.64" y="471.038" width="208.782" height="72.334" style="fill:#ebebeb;stroke:#000;stroke-width:2.08px;"/><rect x="1767.42" y="471.038" width="159.478" height="72.334" style="fill:#ebebeb;stroke:#000;stroke-width:2.08px;"/></g><rect x="1926.9" y="488.415" width="49.641" height="36.167" style="fill:#fff;stroke:#000;stroke-width:2.08px;"/></g><rect x="847.703" y="318.023" width="49.641" height="36.167" style="fill:#fff;stroke:#000;stroke-width:2.08px;"/><text x="306.158px" y="462.99px" style="font-family:'ArialMT', 'Arial', sans-serif;font-size:49.237px;">coding DNA<tspan x="566.169px 579.849px " y="462.99px 462.99px "> s</tspan>equence</text><text x="1084.06px" y="2154.74px" style="font-family:'ArialMT', 'Arial', sans-serif;font-size:49.237px;">ESE list</text><text x="1017.61px" y="2936.45px" style="font-family:'ArialMT', 'Arial', sans-serif;font-size:49.237px;">restriction motifs</text><text x="1763.46px" y="2132.83px" style="font-family:'ArialMT', 'Arial', sans-serif;font-size:49.237px;">motif preferred</text><text x="1763.46px" y="2914.25px" style="font-family:'ArialMT', 'Arial', sans-serif;font-size:49.237px;">pre-existing motif kept</text><text x="2725px" y="2297.71px" style="font-family:'ArialMT', 'Arial', sans-serif;font-size:49.237px;">optionally<tspan x="2929.38px 2943.05px " y="2297.71px 2297.71px ">, </tspan>treat exon cores, too</text><text x="1763.74px" y="2417.23px" style="font-family:'ArialMT', 'Arial', sans-serif;font-size:49.237px;">motif avoided</text><text x="1763.74px" y="3218.65px" style="font-family:'ArialMT', 'Arial', sans-serif;font-size:49.237px;">motif avoided</text><path d="M2055.6,2934.8l-0,72.282" style="fill:none;stroke:#fc2125;stroke-width:4.17px;stroke-linecap:butt;"/><path d="M2055.6,3237.19l-0,72.282" style="fill:none;stroke:#fc2125;stroke-width:4.17px;stroke-linecap:butt;"/><clipPath id="_clip1"><rect id="search.svg" x="2007.69" y="2970.89" width="179.351" height="179.351"/></clipPath><g clip-path="url(#_clip1)"><path d="M2139.32,3086.84c9.154,-12.491 14.092,-27.582 14.092,-43.068c-0,-39.971 -32.891,-72.862 -72.862,-72.862c-39.97,0 -72.861,32.891 -72.861,72.862c-0,39.97 32.891,72.861 72.861,72.861c15.505,0 30.611,-4.949 43.111,-14.122l-0.012,-0c0.337,0.448 0.695,0.874 1.099,1.289l43.156,43.156c2.102,2.104 4.957,3.287 7.931,3.287c6.151,0 11.212,-5.061 11.212,-11.212c-0,-2.971 -1.181,-5.823 -3.281,-7.925l-43.157,-43.156c-0.4,-0.406 -0.831,-0.781 -1.289,-1.121l0,0.011Zm2.892,-43.089c0,33.821 -27.83,61.652 -61.652,61.652c-33.821,-0 -61.652,-27.831 -61.652,-61.652c0,-33.821 27.831,-61.652 61.652,-61.652c33.822,-0 61.652,27.831 61.652,61.652Z" style="fill-rule:nonzero;"/></g><clipPath id="_clip2"><rect id="search.svg1" serif:id="search.svg" x="2007.69" y="3273.28" width="179.351" height="179.351"/></clipPath><g clip-path="url(#_clip2)"><path d="M2139.32,3389.23c9.154,-12.491 14.092,-27.582 14.092,-43.068c-0,-39.971 -32.891,-72.862 -72.862,-72.862c-39.97,0 -72.861,32.891 -72.861,72.862c-0,39.97 32.891,72.861 72.861,72.861c15.505,0 30.611,-4.949 43.111,-14.122l-0.012,-0c0.337,0.448 0.695,0.874 1.099,1.289l43.156,43.156c2.102,2.104 4.957,3.287 7.931,3.287c6.151,-0 11.212,-5.061 11.212,-11.212c-0,-2.971 -1.181,-5.823 -3.281,-7.925l-43.157,-43.156c-0.4,-0.406 -0.831,-0.781 -1.289,-1.121l0,0.011Zm2.892,-43.089c0,33.821 -27.83,61.652 -61.652,61.652c-33.821,-0 -61.652,-27.831 -61.652,-61.652c0,-33.821 27.831,-61.652 61.652,-61.652c33.822,-0 61.652,27.831 61.652,61.652Z" style="fill-rule:nonzero;"/></g><g transform="matrix(0.844071,0,0,0.844071,1410.9,1757.03)"><text x="702.065px" y="1542.33px" style="font-family:'ArialMT', 'Arial', sans-serif;font-size:50px;fill:#fc2125;">...</text><text x="743.74px" y="1542.33px" style="font-family:'ArialMT', 'Arial', sans-serif;font-size:58.249px;fill:#fc2125;">GGA<tspan x="868.885px 904.466px " y="1542.33px 1542.33px ">TC</tspan>C</text><text x="988.598px" y="1542.33px" style="font-family:'ArialMT', 'Arial', sans-serif;font-size:50px;fill:#fc2125;">...</text></g><g transform="matrix(0.844071,0,0,0.844071,1410.9,2059.42)"><text x="702.065px" y="1542.33px" style="font-family:'ArialMT', 'Arial', sans-serif;font-size:50px;fill:#fc2125;">...</text><text x="743.74px" y="1542.33px" style="font-family:'ArialMT', 'Arial', sans-serif;font-size:58.249px;fill:#fc2125;">GGA<tspan x="868.885px 904.466px " y="1542.33px 1542.33px ">TC</tspan>C</text><text x="988.598px" y="1542.33px" style="font-family:'ArialMT', 'Arial', sans-serif;font-size:50px;fill:#fc2125;">...</text></g><g transform="matrix(0.844071,0,0,0.844071,-187.592,78.1529)"><text x="324.831px" y="442.522px" style="font-family:'ArialMT', 'Arial', sans-serif;font-size:58.333px;">5&apos;UTR</text><text x="245.107px" y="502.764px" style="font-family:'ArialMT', 'Arial', sans-serif;font-size:58.333px;">(optional)</text></g><g transform="matrix(0.844071,0,0,0.844071,645.021,78.1529)"><text x="245.107px" y="442.522px" style="font-family:'ArialMT', 'Arial', sans-serif;font-size:58.333px;">3&apos;UTR</text><text x="245.107px" y="502.764px" style="font-family:'ArialMT', 'Arial', sans-serif;font-size:58.333px;">(optional)</text></g><text x="2004.99px" y="2342.8px" style="font-family:'Arial-ItalicMT', 'Arial', sans-serif;font-style:italic;font-size:49.237px;">or</text><text x="1881.65px" y="3120.85px" style="font-family:'Arial-ItalicMT', 'Arial', sans-serif;font-style:italic;font-size:49.237px;">or</text><g transform="matrix(0.844071,0,0,0.844071,-52.6073,598.182)"><text x="245.107px" y="442.522px" style="font-family:'ArialMT', 'Arial', sans-serif;font-size:58.333px;">1. inspecting all synonymous codons</text><text x="309.935px" y="502.764px" style="font-family:'ArialMT', 'Arial', sans-serif;font-size:58.333px;">at each synonymous site</text></g><g transform="matrix(0.844071,0,0,0.844071,882.375,808.436)"><text x="245.107px" y="442.522px" style="font-family:'ArialMT', 'Arial', sans-serif;font-size:58.333px;">optionally<tspan x="487.242px 503.449px " y="442.522px 442.522px ">, </tspan>consider only codons</text><text x="245.107px" y="502.764px" style="font-family:'ArialMT', 'Arial', sans-serif;font-size:58.333px;">of same sub-box (for 6-fold degenerates)</text></g><g transform="matrix(0.844071,0,0,0.844071,2024.71,598.639)"><text x="245.107px" y="442.522px" style="font-family:'ArialMT', 'Arial', sans-serif;font-size:58.333px;">2. selecting one of the thusly generated variants</text><text x="309.935px" y="502.764px" style="font-family:'ArialMT', 'Arial', sans-serif;font-size:58.333px;">by GC3</text></g><g><rect x="159.642" y="1557.97" width="99.281" height="72.334" style="fill:#ebebeb;stroke:#000;stroke-width:2.08px;"/><rect x="324.959" y="1557.97" width="208.782" height="72.334" style="fill:#ebebeb;stroke:#000;stroke-width:2.08px;"/><rect x="533.741" y="1557.97" width="159.478" height="72.334" style="fill:#ebebeb;stroke:#000;stroke-width:2.08px;"/><g><path d="M258.923,1594.14l32.859,25.556" style="fill:none;stroke:#000;stroke-width:2.08px;"/><path d="M291.782,1619.69l33.177,-25.556" style="fill:none;stroke:#000;stroke-width:2.08px;"/></g></g><g transform="matrix(0.844071,0,0,0.844071,942.855,-85.8942)"><text x="1601.89px" y="537.594px" style="font-family:'ArialMT', 'Arial', sans-serif;font-size:58.249px;">gene variant with synonymous changes,</text><text x="1601.89px" y="597.749px" style="font-family:'ArialMT', 'Arial', sans-serif;font-size:58.249px;">5&apos;UTR and 3&apos;UTR kept unchanged if provided</text></g><path d="M1074.77,355.995l-0,-28.7l127,0l-0,-26.65l41,41l-41,41l-0,-26.65l-127,0Z" style="fill:none;stroke:#1d1d1b;stroke-width:2.08px;"/><path d="M1410.35,2326.27l0,-28.7l127,0l0,-26.65l41,41l-41,41l0,-26.65l-127,0Z" style="fill:none;stroke:#1d1d1b;stroke-width:2.08px;"/><path d="M1410.48,3109.12l0,-28.7l127,0l0,-26.65l41,41l-41,41l0,-26.65l-127,0Z" style="fill:none;stroke:#1d1d1b;stroke-width:2.08px;"/><text x="1466.21px" y="455.076px" style="font-family:'ArialMT', 'Arial', sans-serif;font-size:49.237px;">ﬁrst intron removed</text><path d="M393.286,1348.09l28.7,0.101l-0.279,79.826l26.65,0.093l-41.143,40.856l-40.857,-41.143l26.65,0.094l0.279,-79.827Z" style="fill:none;stroke:#1d1d1b;stroke-width:2.08px;"/><path d="M1243.02,1359.69l28.7,0.1l-0.279,79.826l26.65,0.093l-41.143,40.857l-40.857,-41.143l26.65,0.093l0.279,-79.826Z" style="fill:none;stroke:#1d1d1b;stroke-width:2.08px;"/><text x="2544.61px" y="1400.26px" style="font-family:'ArialMT', 'Arial', sans-serif;font-size:33.333px;">x</text><text x="2489.42px" y="1204.37px" style="font-family:'ArialMT', 'Arial', sans-serif;font-size:33.333px;">x</text><path d="M3053.72,1570.02l18.75,-9.375l-18.75,-9.375l0,18.75Z"/><path d="M3057.47,1560.65l-618.801,-0" style="fill:none;stroke:#000;stroke-width:2.08px;"/><path d="M395.98,1074.43l0,72.282" style="fill:none;stroke:#fc2125;stroke-width:4.17px;stroke-linecap:butt;"/><path d="M614.13,2265.4l0,72.282" style="fill:none;stroke:#fc2125;stroke-width:4.17px;stroke-linecap:butt;"/><path d="M366.357,3047.12l0,72.282" style="fill:none;stroke:#fc2125;stroke-width:4.17px;stroke-linecap:butt;"/><path d="M608.131,2265.4l-0,72.282" style="fill:none;stroke:#fc2125;stroke-width:4.17px;stroke-linecap:butt;"/><path d="M2155.29,2153.38l-0,72.282" style="fill:none;stroke:#fc2125;stroke-width:4.17px;stroke-linecap:butt;"/><path d="M2149.24,2153.38l-0,72.282" style="fill:none;stroke:#fc2125;stroke-width:4.17px;stroke-linecap:butt;"/><path d="M2128.83,2153.38l-0,72.282" style="fill:none;stroke:#fc2125;stroke-width:4.17px;stroke-linecap:butt;"/><path d="M2119.65,2153.38l0,72.282" style="fill:none;stroke:#fc2125;stroke-width:4.17px;stroke-linecap:butt;"/><path d="M2167.71,2153.38l0,72.282" style="fill:none;stroke:#fc2125;stroke-width:4.17px;stroke-linecap:butt;"/><path d="M2160.96,2436.35l0,72.281" style="fill:none;stroke:#fc2125;stroke-width:4.17px;stroke-linecap:butt;"/><path d="M3120.89,2317.03l0,72.282" style="fill:none;stroke:#fc2125;stroke-width:4.17px;stroke-linecap:butt;"/><path d="M3091.05,2317.53l-0,72.282" style="fill:none;stroke:#fc2125;stroke-width:4.17px;stroke-linecap:butt;"/><path d="M2998.08,2317.53l0,72.282" style="fill:none;stroke:#fc2125;stroke-width:4.17px;stroke-linecap:butt;"/><path d="M2988.28,2317.53l-0,72.282" style="fill:none;stroke:#fc2125;stroke-width:4.17px;stroke-linecap:butt;"/><path d="M3127.75,2317.53l-0,72.282" style="fill:none;stroke:#fc2125;stroke-width:4.17px;stroke-linecap:butt;"/><path d="M3168.09,2317.53l-0,72.282" style="fill:none;stroke:#fc2125;stroke-width:4.17px;stroke-linecap:butt;"/><path d="M2787.01,2317.79l0,72.281" style="fill:none;stroke:#fc2125;stroke-width:4.17px;stroke-linecap:butt;"/><path d="M395.611,1557.97l0,72.282" style="fill:none;stroke:#fc2125;stroke-width:4.17px;stroke-linecap:butt;"/><clipPath id="_clip3"><rect id="search.svg2" serif:id="search.svg" x="349.385" y="1110.52" width="179.351" height="179.351"/></clipPath><g clip-path="url(#_clip3)"><path d="M481.006,1226.47c9.154,-12.492 14.092,-27.582 14.092,-43.069c-0,-39.97 -32.891,-72.861 -72.862,-72.861c-39.97,-0 -72.861,32.891 -72.861,72.861c-0,39.971 32.891,72.862 72.861,72.862c15.504,-0 30.611,-4.949 43.111,-14.122l-0.012,-0c0.337,0.448 0.695,0.874 1.099,1.289l43.156,43.156c2.102,2.104 4.957,3.287 7.931,3.287c6.15,-0 11.212,-5.062 11.212,-11.212c-0,-2.971 -1.181,-5.824 -3.281,-7.925l-43.157,-43.157c-0.401,-0.405 -0.831,-0.78 -1.289,-1.121l0,0.012Zm2.892,-43.089c0,33.821 -27.831,61.652 -61.652,61.652c-33.821,-0 -61.652,-27.831 -61.652,-61.652c0,-33.822 27.831,-61.652 61.652,-61.652c33.821,-0 61.652,27.83 61.652,61.652Z" style="fill-rule:nonzero;"/></g><clipPath id="_clip4"><rect id="search.svg3" serif:id="search.svg" x="567.534" y="2301.49" width="179.351" height="179.351"/></clipPath><g clip-path="url(#_clip4)"><path d="M699.156,2417.44c9.154,-12.491 14.091,-27.581 14.091,-43.068c0,-39.971 -32.891,-72.861 -72.861,-72.861c-39.971,-0 -72.862,32.89 -72.862,72.861c0,39.971 32.891,72.861 72.862,72.861c15.504,0 30.611,-4.948 43.11,-14.122l-0.011,0c0.336,0.449 0.695,0.875 1.098,1.289l43.157,43.157c2.102,2.103 4.957,3.286 7.931,3.286c6.15,0 11.211,-5.061 11.211,-11.211c0,-2.971 -1.181,-5.824 -3.281,-7.926l-43.156,-43.156c-0.401,-0.406 -0.832,-0.78 -1.289,-1.121l-0,0.011Zm2.892,-43.089c-0,33.822 -27.831,61.652 -61.652,61.652c-33.821,0 -61.652,-27.83 -61.652,-61.652c-0,-33.821 27.831,-61.652 61.652,-61.652c33.821,0 61.652,27.831 61.652,61.652Z" style="fill-rule:nonzero;"/></g><clipPath id="_clip5"><rect id="search.svg4" serif:id="search.svg" x="318.451" y="3083.2" width="179.351" height="179.351"/></clipPath><g clip-path="url(#_clip5)"><path d="M450.072,3199.16c9.154,-12.492 14.091,-27.582 14.091,-43.069c0,-39.97 -32.89,-72.861 -72.861,-72.861c-39.971,-0 -72.861,32.891 -72.861,72.861c-0,39.971 32.89,72.862 72.861,72.862c15.504,-0 30.611,-4.949 43.11,-14.122l-0.011,-0c0.336,0.448 0.695,0.874 1.099,1.289l43.156,43.156c2.102,2.104 4.957,3.287 7.931,3.287c6.15,-0 11.211,-5.062 11.211,-11.212c0,-2.971 -1.181,-5.824 -3.281,-7.925l-43.156,-43.157c-0.401,-0.405 -0.832,-0.78 -1.289,-1.121l-0,0.012Zm2.892,-43.089c-0,33.821 -27.831,61.652 -61.652,61.652c-33.821,-0 -61.652,-27.831 -61.652,-61.652c-0,-33.822 27.831,-61.652 61.652,-61.652c33.821,-0 61.652,27.83 61.652,61.652Z" style="fill-rule:nonzero;"/></g><clipPath id="_clip6"><rect id="search.svg5" serif:id="search.svg" x="2108.7" y="2189.47" width="179.351" height="179.351"/></clipPath><g clip-path="url(#_clip6)"><path d="M2240.32,2305.42c9.154,-12.492 14.091,-27.582 14.091,-43.069c-0,-39.97 -32.891,-72.861 -72.861,-72.861c-39.971,-0 -72.862,32.891 -72.862,72.861c0,39.971 32.891,72.862 72.862,72.862c15.504,-0 30.611,-4.949 43.11,-14.123l-0.011,0c0.336,0.449 0.695,0.875 1.098,1.289l43.157,43.157c2.102,2.103 4.957,3.286 7.93,3.286c6.151,0 11.212,-5.061 11.212,-11.211c0,-2.971 -1.181,-5.824 -3.281,-7.925l-43.156,-43.157c-0.401,-0.405 -0.832,-0.78 -1.289,-1.121l-0,0.012Zm2.892,-43.09c-0,33.822 -27.831,61.652 -61.652,61.652c-33.822,0 -61.652,-27.83 -61.652,-61.652c-0,-33.821 27.83,-61.652 61.652,-61.652c33.821,0 61.652,27.831 61.652,61.652Z" style="fill-rule:nonzero;"/></g><clipPath id="_clip7"><rect id="search.svg6" serif:id="search.svg" x="2108.7" y="2473.27" width="179.351" height="179.351"/></clipPath><g clip-path="url(#_clip7)"><path d="M2240.32,2589.22c9.154,-12.491 14.091,-27.582 14.091,-43.068c-0,-39.971 -32.891,-72.862 -72.861,-72.862c-39.971,0 -72.862,32.891 -72.862,72.862c0,39.97 32.891,72.861 72.862,72.861c15.504,0 30.611,-4.948 43.11,-14.122l-0.011,0c0.336,0.448 0.695,0.874 1.098,1.289l43.157,43.156c2.102,2.104 4.957,3.287 7.93,3.287c6.151,0 11.212,-5.061 11.212,-11.212c0,-2.971 -1.181,-5.823 -3.281,-7.925l-43.156,-43.156c-0.401,-0.406 -0.832,-0.78 -1.289,-1.121l-0,0.011Zm2.892,-43.089c-0,33.821 -27.831,61.652 -61.652,61.652c-33.822,0 -61.652,-27.831 -61.652,-61.652c-0,-33.821 27.83,-61.652 61.652,-61.652c33.821,0 61.652,27.831 61.652,61.652Z" style="fill-rule:nonzero;"/></g><clipPath id="_clip8"><rect id="search.svg7" serif:id="search.svg" x="349.015" y="1594.06" width="179.351" height="179.351"/></clipPath><g clip-path="url(#_clip8)"><path d="M480.637,1710.01c9.154,-12.491 14.091,-27.582 14.091,-43.068c0,-39.971 -32.891,-72.862 -72.861,-72.862c-39.971,0 -72.862,32.891 -72.862,72.862c0,39.971 32.891,72.861 72.862,72.861c15.504,0 30.611,-4.948 43.11,-14.122l-0.011,0c0.336,0.448 0.695,0.874 1.099,1.289l43.156,43.157c2.102,2.103 4.957,3.286 7.931,3.286c6.15,0 11.211,-5.061 11.211,-11.212c0,-2.971 -1.181,-5.823 -3.281,-7.925l-43.156,-43.156c-0.401,-0.406 -0.832,-0.78 -1.289,-1.121l-0,0.011Zm2.892,-43.089c-0,33.821 -27.831,61.652 -61.652,61.652c-33.821,0 -61.652,-27.831 -61.652,-61.652c-0,-33.821 27.831,-61.652 61.652,-61.652c33.821,0 61.652,27.831 61.652,61.652Z" style="fill-rule:nonzero;"/></g><g transform="matrix(0.844071,0,0,0.844071,-247.41,-103.343)"><text x="702.065px" y="1542.33px" style="font-family:'ArialMT', 'Arial', sans-serif;font-size:50px;fill:#fc2125;">...</text><text x="743.74px" y="1542.33px" style="font-family:'ArialMT', 'Arial', sans-serif;font-size:58.249px;fill:#fc2125;">AAA</text><text x="860.296px" y="1542.33px" style="font-family:'ArialMT', 'Arial', sans-serif;font-size:50px;fill:#fc2125;">...</text></g><g transform="matrix(0.844071,0,0,0.844071,-29.2605,1087.63)"><text x="702.065px" y="1542.33px" style="font-family:'ArialMT', 'Arial', sans-serif;font-size:50px;fill:#fc2125;">...</text><text x="743.74px" y="1542.33px" style="font-family:'ArialMT', 'Arial', sans-serif;font-size:58.249px;fill:#fc2125;">CCTGGA</text><text x="992.921px" y="1542.33px" style="font-family:'ArialMT', 'Arial', sans-serif;font-size:50px;fill:#fc2125;">...</text></g><g transform="matrix(0.844071,0,0,0.844071,-278.344,1869.34)"><text x="702.065px" y="1542.33px" style="font-family:'ArialMT', 'Arial', sans-serif;font-size:50px;fill:#fc2125;">...</text><text x="743.74px" y="1542.33px" style="font-family:'ArialMT', 'Arial', sans-serif;font-size:58.249px;fill:#fc2125;">GGA<tspan x="868.885px 904.466px " y="1542.33px 1542.33px ">TC</tspan>C</text><text x="988.598px" y="1542.33px" style="font-family:'ArialMT', 'Arial', sans-serif;font-size:50px;fill:#fc2125;">...</text></g><g transform="matrix(0.844071,0,0,0.844071,1511.9,975.611)"><text x="702.065px" y="1542.33px" style="font-family:'ArialMT', 'Arial', sans-serif;font-size:50px;fill:#fc2125;">...</text><text x="743.74px" y="1542.33px" style="font-family:'ArialMT', 'Arial', sans-serif;font-size:58.249px;fill:#fc2125;">CCTGGA</text><text x="992.921px" y="1542.33px" style="font-family:'ArialMT', 'Arial', sans-serif;font-size:50px;fill:#fc2125;">...</text></g><g transform="matrix(0.844071,0,0,0.844071,1511.9,1259.41)"><text x="702.065px" y="1542.33px" style="font-family:'ArialMT', 'Arial', sans-serif;font-size:50px;fill:#fc2125;">...</text><text x="743.74px" y="1542.33px" style="font-family:'ArialMT', 'Arial', sans-serif;font-size:58.249px;fill:#fc2125;">CCTGGA</text><text x="992.921px" y="1542.33px" style="font-family:'ArialMT', 'Arial', sans-serif;font-size:50px;fill:#fc2125;">...</text></g><g transform="matrix(0.844071,0,0,0.844071,-135.009,108.884)"><text x="702.065px" y="1542.33px" style="font-family:'ArialMT', 'Arial', sans-serif;font-size:58.249px;">AAA</text><text x="928.692px" y="1542.33px" style="font-family:'Arial-ItalicMT', 'Arial', sans-serif;font-style:italic;font-size:49.858px;">or</text><text x="1029.88px" y="1542.33px" style="font-family:'ArialMT', 'Arial', sans-serif;font-size:58.249px;"><tspan x="1029.88px 1068.73px " y="1542.33px 1542.33px ">AA</tspan>A</text><text x="1159.41px" y="1542.33px" style="font-family:'ArialMT', 'Arial', sans-serif;font-size:58.249px;fill:none;">X</text><rect x="1016.91" y="1527.26" width="142.495" height="2.901"/></g><g transform="matrix(0.844071,0,0,0.844071,743.982,92.6395)"><text x="702.065px" y="1542.33px" style="font-family:'ArialMT', 'Arial', sans-serif;font-size:58.249px;">TT<tspan x="768.904px " y="1542.33px ">A</tspan></text><text x="836.909px" y="1542.33px" style="font-family:'Arial-ItalicMT', 'Arial', sans-serif;font-style:italic;font-size:49.858px;">or</text><text x="908.945px" y="1542.33px" style="font-family:'ArialMT', 'Arial', sans-serif;font-size:58.249px;">TTG</text></g><g transform="matrix(0.844071,0,0,0.844071,695.913,169.015)"><text x="702.065px" y="1542.33px" style="font-family:'ArialMT', 'Arial', sans-serif;font-size:58.249px;fill:none;">X</text><text x="757.1px" y="1542.33px" style="font-family:'ArialMT', 'Arial', sans-serif;font-size:58.249px;">CT<tspan x="830.424px 866.062px 882.246px " y="1542.33px 1542.33px 1542.33px ">A ,</tspan> CTC, CTG, CTG</text><text x="1361.15px" y="1542.33px" style="font-family:'ArialMT', 'Arial', sans-serif;font-size:58.249px;fill:none;">X</text><rect x="757.1" y="1527.26" width="604.054" height="2.901"/></g><text x="1220.44px" y="1303.58px" style="font-family:'ArialMT', 'Arial', sans-serif;font-size:49.167px;">TT<tspan x="1276.86px " y="1303.58px ">A</tspan></text><g transform="matrix(0.844071,0,0,0.844071,-247.41,386.936)"><text x="702.065px" y="1542.33px" style="font-family:'ArialMT', 'Arial', sans-serif;font-size:50px;fill:#fc2125;">...</text><text x="743.74px" y="1542.33px" style="font-family:'ArialMT', 'Arial', sans-serif;font-size:58.249px;fill:#fc2125;">AAA</text><text x="860.296px" y="1542.33px" style="font-family:'ArialMT', 'Arial', sans-serif;font-size:50px;fill:#fc2125;">..</text><text x="901.97px" y="1542.33px" style="font-family:'Arial-ItalicMT', 'Arial', sans-serif;font-style:italic;font-size:50px;fill:#fc2125;">or</text><text x="960.32px" y="1542.33px" style="font-family:'ArialMT', 'Arial', sans-serif;font-size:58.249px;fill:#fc2125;">...AAG...</text></g><g transform="matrix(0.844071,0,0,0.844071,513.811,277.556)"><text x="702.065px" y="1542.33px" style="font-family:'ArialMT', 'Arial', sans-serif;font-size:50px;">...</text><text x="743.74px" y="1542.33px" style="font-family:'ArialMT', 'Arial', sans-serif;font-size:58.249px;">TT<tspan x="810.579px " y="1542.33px ">A</tspan></text><text x="849.431px" y="1542.33px" style="font-family:'ArialMT', 'Arial', sans-serif;font-size:50px;">...</text><text x="904.997px" y="1542.33px" style="font-family:'Arial-ItalicMT', 'Arial', sans-serif;font-style:italic;font-size:50px;">or</text><text x="963.347px" y="1542.33px" style="font-family:'ArialMT', 'Arial', sans-serif;font-size:58.249px;">...TTG...</text></g><path d="M590.346,1416.55c-10.502,-0 -19.143,-8.642 -19.143,-19.143c-0,-10.502 8.641,-19.144 19.143,-19.144c10.501,0 19.143,8.642 19.143,19.144c0,10.501 -8.642,19.143 -19.143,19.143Zm-0,2.735c12.002,-0 21.878,-9.877 21.878,-21.878c-0,-12.002 -9.876,-21.878 -21.878,-21.878c-12.002,-0 -21.878,9.876 -21.878,21.878c-0,12.001 9.876,21.878 21.878,21.878Z" style="fill-rule:nonzero;"/><path d="M598.468,1389.12c-0.019,0.019 -0.038,0.039 -0.055,0.06l-9.497,12.102l-5.724,-5.727c-0.38,-0.354 -0.88,-0.55 -1.399,-0.55c-1.125,-0 -2.051,0.926 -2.051,2.051c0,0.518 0.197,1.018 0.551,1.398l7.236,7.239c0.384,0.384 0.906,0.599 1.449,0.599c0.569,0 1.114,-0.237 1.502,-0.654l10.917,-13.646c0.363,-0.382 0.566,-0.888 0.566,-1.415c-0,-1.125 -0.926,-2.051 -2.051,-2.051c-0.541,-0 -1.06,0.214 -1.444,0.594Z" style="fill-rule:nonzero;"/><path d="M1663.48,1399.7c-10.502,-0 -19.143,-8.642 -19.143,-19.144c-0,-10.501 8.641,-19.143 19.143,-19.143c10.502,0 19.143,8.642 19.143,19.143c0,10.502 -8.641,19.144 -19.143,19.144Zm-0,2.734c12.002,0 21.878,-9.876 21.878,-21.878c-0,-12.002 -9.876,-21.878 -21.878,-21.878c-12.002,0 -21.878,9.876 -21.878,21.878c-0,12.002 9.876,21.878 21.878,21.878Z" style="fill-rule:nonzero;"/><path d="M1671.6,1372.27c-0.019,0.019 -0.038,0.039 -0.055,0.06l-9.497,12.101l-5.724,-5.726c-0.38,-0.354 -0.88,-0.551 -1.398,-0.551c-1.126,0 -2.052,0.926 -2.052,2.051c0,0.519 0.197,1.019 0.551,1.399l7.236,7.239c0.384,0.383 0.906,0.599 1.449,0.599c0.57,0 1.114,-0.237 1.502,-0.654l10.917,-13.646c0.363,-0.382 0.566,-0.889 0.566,-1.415c0,-1.125 -0.926,-2.051 -2.051,-2.051c-0.541,-0 -1.06,0.213 -1.444,0.594Z" style="fill-rule:nonzero;"/><path d="M2410.72,2275.31c-10.502,-0 -19.143,-8.642 -19.143,-19.143c-0,-10.502 8.641,-19.144 19.143,-19.144c10.502,0 19.143,8.642 19.143,19.144c0,10.501 -8.641,19.143 -19.143,19.143Zm0,2.735c12.002,-0 21.878,-9.877 21.878,-21.878c0,-12.002 -9.876,-21.878 -21.878,-21.878c-12.002,-0 -21.878,9.876 -21.878,21.878c0,12.001 9.876,21.878 21.878,21.878Z" style="fill-rule:nonzero;"/><path d="M2418.85,2247.88c-0.019,0.019 -0.037,0.039 -0.054,0.06l-9.498,12.102l-5.724,-5.727c-0.38,-0.353 -0.88,-0.55 -1.398,-0.55c-1.125,-0 -2.051,0.926 -2.051,2.051c-0,0.519 0.196,1.018 0.55,1.398l7.236,7.239c0.385,0.384 0.906,0.599 1.449,0.599c0.57,0 1.114,-0.237 1.502,-0.654l10.917,-13.646c0.363,-0.381 0.566,-0.888 0.566,-1.415c0,-1.125 -0.926,-2.051 -2.051,-2.051c-0.54,-0 -1.06,0.214 -1.444,0.594Z" style="fill-rule:nonzero;"/><path d="M2318.43,3056.73c-10.502,0 -19.143,-8.641 -19.143,-19.143c-0,-10.502 8.641,-19.143 19.143,-19.143c10.502,-0 19.143,8.641 19.143,19.143c0,10.502 -8.641,19.143 -19.143,19.143Zm-0,2.735c12.002,0 21.878,-9.876 21.878,-21.878c-0,-12.002 -9.876,-21.878 -21.878,-21.878c-12.002,0 -21.878,9.876 -21.878,21.878c-0,12.002 9.876,21.878 21.878,21.878Z" style="fill-rule:nonzero;"/><path d="M2326.55,3029.3c-0.019,0.019 -0.038,0.039 -0.055,0.06l-9.497,12.101l-5.724,-5.726c-0.38,-0.354 -0.88,-0.551 -1.398,-0.551c-1.126,0 -2.052,0.926 -2.052,2.051c0,0.519 0.197,1.019 0.551,1.399l7.236,7.238c0.385,0.384 0.906,0.6 1.449,0.6c0.57,-0 1.114,-0.237 1.502,-0.654l10.917,-13.647c0.363,-0.381 0.566,-0.888 0.566,-1.414c0,-1.126 -0.926,-2.052 -2.051,-2.052c-0.541,0 -1.06,0.214 -1.444,0.595Z" style="fill-rule:nonzero;"/><path d="M2410.72,2559.11c-10.502,-0 -19.143,-8.642 -19.143,-19.144c-0,-10.501 8.641,-19.143 19.143,-19.143c10.502,0 19.143,8.642 19.143,19.143c0,10.502 -8.641,19.144 -19.143,19.144Zm0,2.734c12.002,0 21.878,-9.876 21.878,-21.878c0,-12.002 -9.876,-21.878 -21.878,-21.878c-12.002,0 -21.878,9.876 -21.878,21.878c0,12.002 9.876,21.878 21.878,21.878Z" style="fill-rule:nonzero;"/><path d="M2419.89,2530.8c-0.256,-0.257 -0.605,-0.402 -0.968,-0.402c-0.363,0 -0.711,0.145 -0.968,0.402l-16.408,16.408c-0.257,0.257 -0.401,0.606 -0.401,0.969c-0,0.751 0.618,1.369 1.369,1.369c0.363,-0 0.711,-0.145 0.968,-0.401l16.408,-16.409c0.257,-0.256 0.402,-0.605 0.402,-0.968c0,-0.363 -0.145,-0.712 -0.402,-0.968Z" style="fill-rule:nonzero;"/><path d="M2318.43,3359.12c-10.502,0 -19.143,-8.641 -19.143,-19.143c-0,-10.502 8.641,-19.143 19.143,-19.143c10.502,-0 19.143,8.641 19.143,19.143c0,10.502 -8.641,19.143 -19.143,19.143Zm-0,2.735c12.002,0 21.878,-9.876 21.878,-21.878c-0,-12.002 -9.876,-21.878 -21.878,-21.878c-12.002,0 -21.878,9.876 -21.878,21.878c-0,12.002 9.876,21.878 21.878,21.878Z" style="fill-rule:nonzero;"/><path d="M2327.6,3330.81c-0.256,-0.257 -0.605,-0.402 -0.968,-0.402c-0.363,0 -0.712,0.145 -0.968,0.402l-16.408,16.408c-0.257,0.257 -0.401,0.605 -0.401,0.968c-0,0.751 0.618,1.369 1.369,1.369c0.363,0 0.711,-0.144 0.968,-0.401l16.408,-16.408c0.257,-0.256 0.402,-0.605 0.402,-0.968c-0,-0.363 -0.145,-0.712 -0.402,-0.968Z" style="fill-rule:nonzero;"/><path d="M882.439,1416.96c-10.501,0 -19.143,-8.641 -19.143,-19.143c0,-10.502 8.642,-19.143 19.143,-19.143c10.502,-0 19.144,8.641 19.144,19.143c-0,10.502 -8.642,19.143 -19.144,19.143Zm0,2.735c12.002,0 21.878,-9.876 21.878,-21.878c0,-12.002 -9.876,-21.878 -21.878,-21.878c-12.002,0 -21.878,9.876 -21.878,21.878c0,12.002 9.876,21.878 21.878,21.878Z" style="fill-rule:nonzero;"/><path d="M891.612,1388.64c-0.257,-0.257 -0.605,-0.402 -0.968,-0.402c-0.364,0 -0.712,0.145 -0.969,0.402l-16.408,16.408c-0.257,0.257 -0.401,0.605 -0.401,0.968c-0,0.751 0.618,1.369 1.369,1.369c0.363,0 0.712,-0.144 0.968,-0.401l16.409,-16.408c0.257,-0.256 0.401,-0.605 0.401,-0.968c0,-0.363 -0.144,-0.712 -0.401,-0.968Z" style="fill-rule:nonzero;"/><path d="M1895.27,1472.11c-10.501,0 -19.143,-8.641 -19.143,-19.143c0,-10.502 8.642,-19.143 19.143,-19.143c10.502,-0 19.144,8.641 19.144,19.143c-0,10.502 -8.642,19.143 -19.144,19.143Zm0,2.735c12.002,-0 21.878,-9.876 21.878,-21.878c0,-12.002 -9.876,-21.878 -21.878,-21.878c-12.001,0 -21.878,9.876 -21.878,21.878c0,12.002 9.877,21.878 21.878,21.878Z" style="fill-rule:nonzero;"/><path d="M1904.45,1443.79c-0.257,-0.257 -0.605,-0.402 -0.968,-0.402c-0.363,-0 -0.712,0.145 -0.968,0.402l-16.409,16.408c-0.257,0.257 -0.401,0.605 -0.401,0.968c0,0.751 0.618,1.369 1.369,1.369c0.363,0 0.712,-0.144 0.968,-0.401l16.409,-16.408c0.257,-0.257 0.402,-0.605 0.402,-0.968c-0,-0.363 -0.145,-0.712 -0.402,-0.968Z" style="fill-rule:nonzero;"/><path d="M2448.05,1181.92l-9.375,-18.75l-9.375,18.75l18.75,-0Z"/><path d="M2438.67,1178.17l0,382.478" style="fill:none;stroke:#000;stroke-width:2.08px;"/><g transform="matrix(0.844071,0,0,0.844071,-1519.14,-7935.19)"><text x="4496.6px" y="10969.7px" style="font-family:'ArialMT', 'Arial', sans-serif;font-size:50px;">GC3</text><text x="4496.6px" y="11021.3px" style="font-family:'ArialMT', 'Arial', sans-serif;font-size:50px;">content</text></g><text x="2655.01px" y="1432.91px" style="font-family:'ArialMT', 'Arial', sans-serif;font-size:33.333px;">x</text><text x="2599.81px" y="1465.56px" style="font-family:'ArialMT', 'Arial', sans-serif;font-size:33.333px;">x</text><text x="2710.21px" y="1334.96px" style="font-family:'ArialMT', 'Arial', sans-serif;font-size:33.333px;">x</text><text x="2765.41px" y="1269.66px" style="font-family:'ArialMT', 'Arial', sans-serif;font-size:33.333px;">x</text><text x="2875.8px" y="1498.2px" style="font-family:'ArialMT', 'Arial', sans-serif;font-size:33.333px;">x</text><text x="2820.61px" y="1530.85px" style="font-family:'ArialMT', 'Arial', sans-serif;font-size:33.333px;">x</text><text x="2931px" y="1237.02px" style="font-family:'ArialMT', 'Arial', sans-serif;font-size:33.333px;">x</text><text x="2986.2px" y="1367.61px" style="font-family:'ArialMT', 'Arial', sans-serif;font-size:33.333px;">x</text><text x="2628.22px" y="1631.71px" style="font-family:'ArialMT', 'Arial', sans-serif;font-size:42.204px;">variant index</text><text x="2606.52px" y="1318.38px" style="font-family:'ArialMT', 'Arial', sans-serif;font-size:33.333px;">x</text><path d="M2119.65,936.313l0,821.503" style="fill:none;stroke:#000;stroke-width:1.25px;"/><path d="M1033.64,1200.64l0,393.419" style="fill:none;stroke:#000;stroke-width:1.25px;"/><path d="M1298.09,2211.4l-28.064,-27.996l-186.694,0c-8.667,0 -15.705,7.93 -15.705,17.696l0,254.472c0,9.766 7.038,17.696 15.705,17.696l199.053,-0c8.668,-0 15.705,-7.93 15.705,-17.696l-0,-244.172Z" style="fill:#fff;stroke:#000;stroke-width:2.08px;"/><path d="M1287.64,2993.11l-28.064,-27.996l-186.694,-0c-8.668,-0 -15.705,7.929 -15.705,17.695l0,254.472c0,9.767 7.037,17.696 15.705,17.696l199.053,-0c8.667,-0 15.705,-7.929 15.705,-17.696l-0,-244.171Z" style="fill:#fff;stroke:#000;stroke-width:2.08px;"/><path d="M1270.02,2183.4c0,0 -1.764,24.357 -0.625,26.135c1.14,1.779 28.689,1.861 28.689,1.861l-28.064,-27.996Z"/><path d="M1259.57,2965.12c0,-0 -1.765,24.356 -0.625,26.134c1.14,1.779 28.689,1.862 28.689,1.862l-28.064,-27.996Z"/><g transform="matrix(0.844071,0,0,0.844071,-263.316,1842.36)"><text x="1601.89px" y="537.594px" style="font-family:'ArialMT', 'Arial', sans-serif;font-size:50px;">CCTGGA</text><text x="1601.89px" y="589.23px" style="font-family:'ArialMT', 'Arial', sans-serif;font-size:50px;">...</text></g><g transform="matrix(0.844071,0,0,0.844071,-273.765,2624.07)"><text x="1601.89px" y="537.594px" style="font-family:'ArialMT', 'Arial', sans-serif;font-size:50px;">GGA<tspan x="1709.32px 1739.86px " y="537.594px 537.594px ">TC</tspan>C</text><text x="1601.89px" y="589.23px" style="font-family:'ArialMT', 'Arial', sans-serif;font-size:50px;">...</text></g><path d="M908.427,2306.45c0.965,0 1.759,0.794 1.759,1.759l-0,10.551l10.551,-0c0.965,-0 1.758,0.794 1.758,1.758c0,0.965 -0.793,1.759 -1.758,1.759l-10.551,-0l-0,10.551c-0,0.964 -0.794,1.758 -1.759,1.758c-0.964,0 -1.758,-0.794 -1.758,-1.758l-0,-10.551l-10.551,-0c-0.965,-0 -1.758,-0.794 -1.758,-1.759c-0,-0.964 0.793,-1.758 1.758,-1.758l10.551,-0l-0,-10.551c-0,-0.965 0.794,-1.759 1.758,-1.759Z" style="fill-rule:nonzero;"/><path d="M908.427,3088.16c0.965,-0 1.759,0.794 1.759,1.758l-0,10.551l10.551,0c0.965,0 1.758,0.794 1.758,1.759c0,0.964 -0.793,1.758 -1.758,1.758l-10.551,0l-0,10.551c-0,0.965 -0.794,1.758 -1.759,1.758c-0.964,0 -1.758,-0.793 -1.758,-1.758l-0,-10.551l-10.551,0c-0.965,0 -1.758,-0.794 -1.758,-1.758c-0,-0.965 0.793,-1.759 1.758,-1.759l10.551,0l-0,-10.551c-0,-0.964 0.794,-1.758 1.758,-1.758Z" style="fill-rule:nonzero;"/><text x="1718.54px" y="377.578px" style="font-family:'Arial-ItalicMT', 'Arial', sans-serif;font-style:italic;font-size:49.237px;">or</text><g transform="matrix(0.499459,0,0,1,147.585,0)"><text x="4059.95px" y="481.01px" style="font-family:'ArialMT', 'Arial', sans-serif;font-size:387.381px;fill:none;stroke:#000;stroke-width:2.64px;stroke-linecap:butt;stroke-miterlimit:2;">}</text></g><g transform="matrix(0.409928,0,0,1,421.963,0)"><text x="5302.53px" y="2468.52px" style="font-family:'ArialMT', 'Arial', sans-serif;font-size:471.988px;fill:none;stroke:#000;stroke-width:2.73px;stroke-linecap:butt;stroke-miterlimit:2;">}</text></g></svg>